<mxfile host="app.diagrams.net" modified="2021-10-18T13:47:29.416Z" agent="5.0 (Windows NT 10.0; Win64; x64) AppleWebKit/537.36 (KHTML, like Gecko) Chrome/94.0.4606.81 Safari/537.36" etag="p-I08tylkL1sJ8cIq6ro" version="15.3.8" type="github">
  <diagram name="Page-1" id="bfe91b75-5d2c-26a0-9c1d-138518896778">
    <mxGraphModel dx="2480" dy="1286" grid="1" gridSize="10" guides="1" tooltips="1" connect="1" arrows="1" fold="1" page="1" pageScale="1" pageWidth="1100" pageHeight="850" background="none" math="0" shadow="0">
      <root>
        <mxCell id="0" />
        <mxCell id="1" parent="0" />
        <mxCell id="2ZipZ5JmDVr1_vGbwTVL-36" value="&lt;font size=&quot;1&quot; color=&quot;#ffc100&quot;&gt;&lt;b style=&quot;font-size: 50px&quot;&gt;Integrador&amp;nbsp;&lt;/b&gt;&lt;/font&gt;" style="rounded=1;whiteSpace=wrap;html=1;shadow=0;comic=0;strokeWidth=2;fillColor=#000000;fontFamily=Verdana;fontSize=28;align=center;arcSize=11;verticalAlign=top;strokeColor=#23445d;" vertex="1" parent="1">
          <mxGeometry x="430" y="320" width="1900" height="1050" as="geometry" />
        </mxCell>
        <mxCell id="7c3789c024ecab99-82" value="&lt;font size=&quot;1&quot;&gt;&lt;b style=&quot;font-size: 55px&quot;&gt;Strati&lt;/b&gt;&lt;/font&gt;" style="rounded=1;whiteSpace=wrap;html=1;shadow=0;comic=0;strokeWidth=8;fontFamily=Verdana;fontSize=28;align=center;arcSize=11;verticalAlign=top;strokeColor=#000000;fillColor=#ffc100;" parent="1" vertex="1">
          <mxGeometry x="1170" y="492" width="1065" height="810" as="geometry" />
        </mxCell>
        <mxCell id="7c3789c024ecab99-55" style="edgeStyle=none;html=1;labelBackgroundColor=none;endArrow=none;endFill=0;strokeWidth=2;fontFamily=Verdana;fontSize=28;fontColor=#6881B3;" parent="1" source="7c3789c024ecab99-8" target="7c3789c024ecab99-54" edge="1">
          <mxGeometry relative="1" as="geometry">
            <mxPoint x="1660" y="837.0000000000002" as="targetPoint" />
          </mxGeometry>
        </mxCell>
        <mxCell id="7c3789c024ecab99-8" value="" style="fontColor=#0066CC;verticalAlign=top;verticalLabelPosition=bottom;labelPosition=center;align=center;html=1;fillColor=#CCCCCC;strokeColor=#6881B3;gradientColor=none;gradientDirection=north;strokeWidth=2;shape=mxgraph.networks.firewall;rounded=0;shadow=0;comic=0;" parent="1" vertex="1">
          <mxGeometry x="1490" y="847" width="100" height="100" as="geometry" />
        </mxCell>
        <mxCell id="7c3789c024ecab99-52" style="edgeStyle=none;html=1;labelBackgroundColor=none;endArrow=none;endFill=0;strokeWidth=2;fontFamily=Verdana;fontSize=15;fontColor=#036897;" parent="1" source="7c3789c024ecab99-10" target="7c3789c024ecab99-8" edge="1">
          <mxGeometry relative="1" as="geometry">
            <mxPoint x="1549.9999999999995" y="917" as="targetPoint" />
          </mxGeometry>
        </mxCell>
        <mxCell id="7c3789c024ecab99-10" value="" style="fontColor=#0066CC;verticalAlign=top;verticalLabelPosition=bottom;labelPosition=center;align=center;html=1;fillColor=#CCCCCC;strokeColor=#6881B3;gradientColor=none;gradientDirection=north;strokeWidth=2;shape=mxgraph.networks.router;rounded=0;shadow=0;comic=0;" parent="1" vertex="1">
          <mxGeometry x="1300" y="882" width="100" height="30" as="geometry" />
        </mxCell>
        <mxCell id="2ZipZ5JmDVr1_vGbwTVL-3" style="edgeStyle=orthogonalEdgeStyle;rounded=0;orthogonalLoop=1;jettySize=auto;html=1;entryX=0;entryY=0.5;entryDx=0;entryDy=0;strokeColor=#66B2FF;strokeWidth=6;" edge="1" parent="1" source="7c3789c024ecab99-53" target="7c3789c024ecab99-82">
          <mxGeometry relative="1" as="geometry" />
        </mxCell>
        <mxCell id="7c3789c024ecab99-53" value="&lt;font color=&quot;#ff0000&quot;&gt;&lt;b&gt;Clientes&lt;/b&gt;&lt;/font&gt;" style="html=1;fillColor=#dae8fc;strokeColor=#6c8ebf;gradientDirection=north;strokeWidth=2;shape=mxgraph.networks.cloud;rounded=0;shadow=0;comic=0;align=center;fontSize=28;" parent="1" vertex="1">
          <mxGeometry x="500" y="756" width="400" height="282" as="geometry" />
        </mxCell>
        <mxCell id="2ZipZ5JmDVr1_vGbwTVL-6" style="edgeStyle=orthogonalEdgeStyle;rounded=0;orthogonalLoop=1;jettySize=auto;html=1;entryX=0.5;entryY=0;entryDx=0;entryDy=0;entryPerimeter=0;" edge="1" parent="1" source="7c3789c024ecab99-54" target="2ZipZ5JmDVr1_vGbwTVL-2">
          <mxGeometry relative="1" as="geometry" />
        </mxCell>
        <mxCell id="2ZipZ5JmDVr1_vGbwTVL-9" style="edgeStyle=orthogonalEdgeStyle;rounded=0;orthogonalLoop=1;jettySize=auto;html=1;entryX=0.814;entryY=0.411;entryDx=0;entryDy=0;entryPerimeter=0;" edge="1" parent="1" source="7c3789c024ecab99-54" target="7c3789c024ecab99-57">
          <mxGeometry relative="1" as="geometry" />
        </mxCell>
        <mxCell id="2ZipZ5JmDVr1_vGbwTVL-13" style="edgeStyle=orthogonalEdgeStyle;rounded=0;orthogonalLoop=1;jettySize=auto;html=1;entryX=0.586;entryY=0.219;entryDx=0;entryDy=0;entryPerimeter=0;" edge="1" parent="1" source="7c3789c024ecab99-54" target="2ZipZ5JmDVr1_vGbwTVL-11">
          <mxGeometry relative="1" as="geometry" />
        </mxCell>
        <mxCell id="7c3789c024ecab99-54" value="" style="fontColor=#0066CC;verticalAlign=top;verticalLabelPosition=bottom;labelPosition=center;align=center;html=1;fillColor=#CCCCCC;strokeColor=#6881B3;gradientColor=none;gradientDirection=north;strokeWidth=2;shape=mxgraph.networks.router;rounded=0;shadow=0;comic=0;" parent="1" vertex="1">
          <mxGeometry x="1640" y="880" width="100" height="38" as="geometry" />
        </mxCell>
        <mxCell id="7c3789c024ecab99-57" value="" style="fontColor=#0066CC;verticalAlign=top;verticalLabelPosition=bottom;labelPosition=center;align=center;html=1;fillColor=#CCCCCC;strokeColor=#6881B3;gradientColor=none;gradientDirection=north;strokeWidth=2;shape=mxgraph.networks.storage;rounded=0;shadow=0;comic=0;" parent="1" vertex="1">
          <mxGeometry x="1750" y="1100" width="100" height="100" as="geometry" />
        </mxCell>
        <mxCell id="7c3789c024ecab99-59" style="edgeStyle=none;html=1;labelBackgroundColor=none;endArrow=none;endFill=0;strokeWidth=2;fontFamily=Verdana;fontSize=28;fontColor=#6881B3;" parent="1" source="7c3789c024ecab99-58" target="7c3789c024ecab99-54" edge="1">
          <mxGeometry relative="1" as="geometry">
            <mxPoint x="1570" y="827" as="targetPoint" />
          </mxGeometry>
        </mxCell>
        <mxCell id="7c3789c024ecab99-58" value="" style="fontColor=#0066CC;verticalAlign=top;verticalLabelPosition=bottom;labelPosition=center;align=center;html=1;fillColor=#CCCCCC;strokeColor=#6881B3;gradientColor=none;gradientDirection=north;strokeWidth=2;shape=mxgraph.networks.server_storage;rounded=0;shadow=0;comic=0;" parent="1" vertex="1">
          <mxGeometry x="1630" y="580" width="105" height="105" as="geometry" />
        </mxCell>
        <mxCell id="2ZipZ5JmDVr1_vGbwTVL-2" value="" style="fontColor=#0066CC;verticalAlign=top;verticalLabelPosition=bottom;labelPosition=center;align=center;html=1;fillColor=#CCCCCC;strokeColor=#6881B3;gradientColor=none;gradientDirection=north;strokeWidth=2;shape=mxgraph.networks.storage;rounded=0;shadow=0;comic=0;" vertex="1" parent="1">
          <mxGeometry x="1940" y="1110" width="100" height="100" as="geometry" />
        </mxCell>
        <mxCell id="2ZipZ5JmDVr1_vGbwTVL-8" value="&lt;b&gt;&lt;font style=&quot;font-size: 40px&quot;&gt;WebAPI&lt;/font&gt;&lt;/b&gt;" style="text;html=1;align=center;verticalAlign=middle;resizable=0;points=[];autosize=1;fillColor=none;" vertex="1" parent="1">
          <mxGeometry x="1764" y="611" width="170" height="30" as="geometry" />
        </mxCell>
        <mxCell id="2ZipZ5JmDVr1_vGbwTVL-10" value="&lt;b&gt;&lt;font style=&quot;font-size: 40px&quot;&gt;VBS&lt;/font&gt;&lt;/b&gt;" style="text;html=1;align=center;verticalAlign=middle;resizable=0;points=[];autosize=1;" vertex="1" parent="1">
          <mxGeometry x="1965" y="1240" width="100" height="30" as="geometry" />
        </mxCell>
        <mxCell id="2ZipZ5JmDVr1_vGbwTVL-11" value="" style="fontColor=#0066CC;verticalAlign=top;verticalLabelPosition=bottom;labelPosition=center;align=center;html=1;fillColor=#CCCCCC;strokeColor=#6881B3;gradientColor=none;gradientDirection=north;strokeWidth=2;shape=mxgraph.networks.storage;rounded=0;shadow=0;comic=0;" vertex="1" parent="1">
          <mxGeometry x="1550" y="1120" width="100" height="90" as="geometry" />
        </mxCell>
        <mxCell id="2ZipZ5JmDVr1_vGbwTVL-14" value="&lt;b&gt;&lt;font style=&quot;font-size: 40px&quot;&gt;TaskRow&lt;/font&gt;&lt;/b&gt;" style="text;html=1;align=center;verticalAlign=middle;resizable=0;points=[];autosize=1;" vertex="1" parent="1">
          <mxGeometry x="1720" y="1240" width="190" height="30" as="geometry" />
        </mxCell>
        <mxCell id="2ZipZ5JmDVr1_vGbwTVL-15" value="&lt;b&gt;&lt;font style=&quot;font-size: 40px&quot;&gt;Skills&lt;/font&gt;&lt;/b&gt;" style="text;html=1;align=center;verticalAlign=middle;resizable=0;points=[];autosize=1;" vertex="1" parent="1">
          <mxGeometry x="1555" y="1240" width="120" height="30" as="geometry" />
        </mxCell>
        <mxCell id="2ZipZ5JmDVr1_vGbwTVL-16" value="&lt;b style=&quot;font-family: &amp;#34;helvetica&amp;#34; ; font-style: normal ; letter-spacing: normal ; text-align: center ; text-indent: 0px ; text-transform: none ; word-spacing: 0px&quot;&gt;&lt;font style=&quot;font-size: 30px&quot; color=&quot;#ffffff&quot;&gt;Banco SqlLite&lt;/font&gt;&lt;/b&gt;" style="text;whiteSpace=wrap;html=1;" vertex="1" parent="1">
          <mxGeometry x="1748" y="651" width="220" height="50" as="geometry" />
        </mxCell>
        <mxCell id="2ZipZ5JmDVr1_vGbwTVL-18" value="&lt;b&gt;&lt;font style=&quot;font-size: 40px&quot;&gt;VBS&lt;/font&gt;&lt;/b&gt;" style="text;html=1;align=center;verticalAlign=middle;resizable=0;points=[];autosize=1;fillColor=none;" vertex="1" parent="1">
          <mxGeometry x="540" y="935" width="100" height="30" as="geometry" />
        </mxCell>
        <mxCell id="2ZipZ5JmDVr1_vGbwTVL-19" value="&lt;b&gt;&lt;font style=&quot;font-size: 40px&quot;&gt;Skills&lt;/font&gt;&lt;/b&gt;" style="text;html=1;align=center;verticalAlign=middle;resizable=0;points=[];autosize=1;fillColor=none;" vertex="1" parent="1">
          <mxGeometry x="750" y="965" width="120" height="30" as="geometry" />
        </mxCell>
        <mxCell id="2ZipZ5JmDVr1_vGbwTVL-20" value="&lt;b&gt;&lt;font style=&quot;font-size: 40px&quot;&gt;TaskRow&lt;/font&gt;&lt;/b&gt;" style="text;html=1;align=center;verticalAlign=middle;resizable=0;points=[];autosize=1;fillColor=none;" vertex="1" parent="1">
          <mxGeometry x="550" y="990" width="190" height="30" as="geometry" />
        </mxCell>
        <mxCell id="2ZipZ5JmDVr1_vGbwTVL-38" value="" style="shape=image;imageAspect=0;aspect=fixed;verticalLabelPosition=bottom;verticalAlign=top;fontSize=60;strokeColor=#CC0000;image=https://adn.com.br/wp-content/uploads/2020/10/Grupo-957.png;" vertex="1" parent="1">
          <mxGeometry x="530" y="390" width="398.61" height="130" as="geometry" />
        </mxCell>
      </root>
    </mxGraphModel>
  </diagram>
</mxfile>
